<?xml version="1.0" encoding="UTF-8"?>
<svg width="135px" height="40px" viewBox="0 0 135 40" version="1.1" xmlns="http://www.w3.org/2000/svg" xmlns:xlink="http://www.w3.org/1999/xlink">
    <!-- Generator: Sketch 49.1 (51147) - http://www.bohemiancoding.com/sketch -->
    <title>button_googleplay</title>
    <desc>Created with Sketch.</desc>
    <defs>
        <linearGradient x1="58.9170878%" y1="9.59026547%" x2="90.8103723%" y2="60.8514694%" id="linearGradient-1">
            <stop stop-color="#FF177B" offset="0%"></stop>
            <stop stop-color="#FFEC73" offset="100%"></stop>
        </linearGradient>
        <linearGradient x1="37.1029741%" y1="-44.0352456%" x2="0%" y2="101.060094%" id="linearGradient-2">
            <stop stop-color="#064AA2" offset="0%"></stop>
            <stop stop-color="#63FFD4" offset="100%"></stop>
        </linearGradient>
        <path d="M11.8803419,10.9814094 L0.427350427,0 C0.160152354,0.0627917729 0,0.264991785 0,0.605274535 L0,10.9814094 L0,21.6169477 C0,21.9056522 0.115040305,22.0774242 0.256410256,22.1357544 L11.8803419,10.9814094 Z" id="path-3"></path>
        <path d="M0.473023124,12.0493037 L7.0928588,8.3703489 C8.72301041,7.45651438 10.0167394,6.73126615 10.0167394,6.73126615 L14.8307862,4.10805632 L11.6258145,0.957454808 L0.00201850883,12.1131878 C0.131576451,12.1553418 0.359926157,12.1323004 0.538075428,12.0433479" id="path-5"></path>
        <linearGradient x1="78.6453125%" y1="50%" x2="2.49516972%" y2="100%" id="linearGradient-7">
            <stop stop-color="#FF4521" offset="0%"></stop>
            <stop stop-color="#8A33DB" offset="100%"></stop>
        </linearGradient>
        <linearGradient x1="0%" y1="-24.1863374%" x2="64.2244373%" y2="100%" id="linearGradient-8">
            <stop stop-color="#00A3B5" offset="0%"></stop>
            <stop stop-color="#D6FFA1" offset="100%"></stop>
        </linearGradient>
        <path d="M1.60931828,1.09916768 C1.38883852,0.979705765 1.16977493,0.945531999 0.992567086,0.993831221 L12.4550673,11.9912152 L15.6262368,8.95521102 L10.8461538,6.27648579 C10.8461538,6.27648579 6.34077066,3.75115633 3.62039383,2.22631247 L1.60931828,1.09916768 Z" id="path-9"></path>
    </defs>
    <g id="Promo" stroke="none" stroke-width="1" fill="none" fill-rule="evenodd">
        <g id="Promo---Desktop" transform="translate(-393.000000, -296.000000)">
            <g id="App-download" transform="translate(247.000000, 198.000000)">
                <g id="button_googleplay" transform="translate(146.000000, 98.000000)">
                    <path d="M134.032,35.268 C134.032,37.384 132.318,39.098 130.198,39.098 L4.729,39.098 C2.61,39.098 0.89,37.384 0.89,35.268 L0.89,4.725 C0.89,2.61 2.61,0.89 4.729,0.89 L130.197,0.89 C132.318,0.89 134.031,2.61 134.031,4.725 L134.032,35.268 Z" id="Shape" fill="#000000" fill-rule="nonzero"></path>
                    <g id="Google-play" transform="translate(33.000000, 14.000000)" fill="#FFFFFF">
                        <path d="M55.9679392,13.2919465 L55.0451311,14.23039 C54.8318675,14.3567071 54.6197474,14.5033582 54.4081991,14.6074928 C53.7672648,14.9211288 53.1154673,15 52.5362822,15 C51.9199333,15 50.9536721,14.9568673 49.9679712,14.1884897 C48.5986246,13.1489925 48,11.3620679 48,9.80497874 C48,6.58112022 50.4350928,5 52.42136,5 C53.1154673,5 53.8284423,5.187319 54.4081991,5.58229096 C55.3721733,6.26933268 55.6214573,7.16217882 55.7598214,7.6403352 L51.2241109,9.61519502 L49.7386986,9.73966357 C50.2195422,12.3830797 51.8787672,13.920451 53.7123766,13.920451 C54.6283237,13.920451 55.3081371,13.5981884 55.9319188,13.2660669 C55.9319188,13.2660669 56.0571325,13.1958223 55.9679392,13.2919465 L55.9679392,13.2919465 Z M53.1966247,7.98906571 C53.5606428,7.84390922 53.75,7.71860319 53.75,7.42704956 C53.75,6.59084894 52.8880006,5.625 51.8592539,5.625 C51.097303,5.625 49.6666667,6.27634321 49.6666667,8.53805499 C49.6666667,8.89102098 49.7051034,9.26693906 49.7243217,9.64285714 L53.1966247,7.98906571 L53.1966247,7.98906571 Z" id="Fill-1"></path>
                        <path d="M46.2808296,12.5149022 C46.2808296,13.2853665 46.4119955,13.4052556 47.0336323,13.4657879 C47.3576233,13.505751 47.6804933,13.5233817 48,13.5633448 L47.3004484,14 L43.9669283,14 C44.404148,13.4052556 44.4792601,13.3458987 44.4792601,12.9497943 L44.4792601,12.5072622 L44.4719731,0.715808916 L43,0.715808916 L44.4170404,0 L47.1221973,0 C46.5358744,0.356141382 46.360426,0.572999748 46.2853139,1.26706406 L46.2808296,12.5149022" id="Fill-2"></path>
                        <path d="M41.4720969,5.71167457 C41.9322014,6.08326204 42.8921871,6.87193747 42.8921871,8.36762075 C42.8921871,9.82538695 42.0556875,10.5125613 41.2120636,11.1629851 C40.9532178,11.4190713 40.6504393,11.6967411 40.6504393,12.1260792 C40.6504393,12.561834 40.9532178,12.7980866 41.1710995,12.9742553 L41.8947993,13.523178 C42.7746379,14.2529361 43.5767039,14.9220269 43.5767039,16.2812087 C43.5767039,18.1327293 41.752909,20 38.306578,20 C35.4034671,20 34,18.6414016 34,17.1848021 C34,16.4760442 34.3591783,15.4721164 35.54417,14.7843587 C36.7861553,14.0382671 38.4686535,13.938516 39.3698646,13.880182 C39.0884588,13.523178 38.7672762,13.1492572 38.7672762,12.5390838 C38.7672762,12.2054134 38.8693897,12.0064945 38.9679411,11.7719919 C38.748872,11.7924088 38.5280218,11.813409 38.3273569,11.813409 C36.2025647,11.813409 35.0015436,10.2558917 35.0015436,8.72112468 C35.0015436,7.81578129 35.4218713,6.81127013 36.2850867,6.08326204 C37.4273332,5.15925177 38.7892425,5 39.871527,5 L44,5 L42.7164569,5.71167457 L41.4720969,5.71167457 L41.4720969,5.71167457 Z M40.062618,14.4281588 C39.8968364,14.4067797 39.7974871,14.4067797 39.5975917,14.4067797 C39.4144539,14.4067797 38.3234077,14.4459748 37.4783407,14.7274675 C37.0312691,14.889593 35.7391304,15.3688431 35.7391304,16.7923406 C35.7391304,18.2128688 37.1342093,19.2372881 39.2923621,19.2372881 C41.2314678,19.2372881 42.2608696,18.3150138 42.2608696,17.0732393 C42.2608696,16.0511954 41.5947508,15.5119648 40.062618,14.4281588 L40.062618,14.4281588 Z M40.6291491,10.6368885 C41.0902373,10.1838713 41.1304348,9.55813781 41.1304348,9.20281887 C41.1304348,7.79142921 40.2750569,5.59322034 38.6169125,5.59322034 C38.099666,5.59322034 37.5392664,5.84851497 37.2212337,6.24337841 C36.8836934,6.65219874 36.7826087,7.18256024 36.7826087,7.69256796 C36.7826087,9.00684099 37.5617297,11.1864407 39.2754411,11.1864407 C39.7755446,11.1864407 40.3134809,10.9474291 40.6291491,10.6368885 L40.6291491,10.6368885 Z" id="Fill-3"></path>
                        <path d="M28.8988577,15 C25.7075202,15 24,12.4150628 24,10.0745714 C24,7.33987252 26.1465969,5 29.1999048,5 C32.1514755,5 34,7.40361409 34,9.9272851 C34,12.3921654 32.1728939,15 28.8988577,15 L28.8988577,15 Z M31.3946475,13.3094102 C31.8817951,12.6391499 32,11.8025658 32,10.9870824 C32,9.14262536 31.1546557,5.625 28.6562335,5.625 C27.9917785,5.625 27.3225476,5.89496596 26.840176,6.33560004 C26.0533372,7.0685421 25.9130435,7.9895294 25.9130435,8.89313958 C25.9130435,10.962258 26.8968905,14.375 29.3385983,14.375 C30.1266311,14.375 30.9307827,13.9784293 31.3946475,13.3094102 L31.3946475,13.3094102 Z" id="Fill-4"></path>
                        <path d="M18.8985179,15 C15.7052556,15 14,12.4150628 14,10.0745714 C14,7.33987252 16.1480864,5 19.2014761,5 C22.1524909,5 24,7.40361409 24,9.9272851 C24,12.3921654 22.1745134,15 18.8985179,15 L18.8985179,15 Z M21.3955451,13.3094102 C21.8793479,12.6391499 22,11.8025658 22,10.9870824 C22,9.14262536 21.1518518,5.625 18.6545929,5.625 C17.9874228,5.625 17.325031,5.89496596 16.8412282,6.33560004 C16.0528087,7.0685421 15.9130435,7.9895294 15.9130435,8.89313958 C15.9130435,10.962258 16.9015542,14.375 19.3402789,14.375 C20.1269065,14.375 20.9302582,13.9784293 21.3955451,13.3094102 L21.3955451,13.3094102 Z" id="Fill-5"></path>
                        <path d="M12.3232582,14.0504703 L9.76554753,14.6734676 C8.72923371,14.8472574 7.79864312,15 6.81321214,15 C1.87983822,15 0,11.137537 0,8.11455693 C0,4.42287702 2.66343394,1 7.22479777,1 C8.18987562,1 9.11820475,1.15093853 9.96399061,1.39628882 C11.3044707,1.79678708 11.9314604,2.29049439 12.3232582,2.57974314 L10.8374793,4.08070959 L10.2110551,4.22984408 L10.6576933,3.47274602 C10.0527529,2.84433658 8.94068018,1.68433487 6.83017309,1.68433487 C4.00843698,1.68433487 1.87983822,3.96585198 1.87983822,7.29672265 C1.87983822,10.8741463 4.31034183,14.2392938 8.20853266,14.2392938 C9.3539619,14.2392938 9.94363747,13.9945449 10.479038,13.7660324 L10.479038,10.6991538 L7.77828999,10.8537004 L9.20979386,10.0358662 L13,10.0358662 L12.5364008,10.5103303 C12.4114552,10.6233839 12.3944942,10.6618702 12.3594416,10.8134101 C12.3407846,10.9865985 12.3232582,11.537434 12.3232582,11.7310683 L12.3232582,14.0504703" id="Fill-6"></path>
                        <path d="M61.9552991,12.9818108 L61.9552991,18 L61,18 L61,5.23062068 L61.9552991,5.23062068 L61.9552991,6.68499057 C62.5776146,5.74499237 63.7147954,5 65.0355369,5 C67.4044771,5 69,6.87474176 69,9.84245037 C69,12.7903081 67.4044771,14.7041678 65.0355369,14.7041678 C63.7886674,14.7041678 62.6716334,14.0333244 61.9552991,12.9818108 L61.9552991,12.9818108 Z M68.0204082,9.91895946 C68.0204082,7.6586417 66.8986386,5.93464052 64.9095619,5.93464052 C63.6743234,5.93464052 62.4930107,6.95417305 61.9795918,7.84331397 L61.9795918,11.9739547 C62.4930107,12.8648656 63.6743234,13.9215686 64.9095619,13.9215686 C66.8986386,13.9215686 68.0204082,12.1828173 68.0204082,9.91895946 L68.0204082,9.91895946 Z" id="Fill-7"></path>
                        <polygon id="Fill-8" points="70 1 71 1 71 14 70 14"></polygon>
                        <path d="M81.9825661,16.9464984 C82.1970617,17.0416873 82.5631734,17.1000854 82.7952987,17.1000854 C83.4088149,17.1000854 83.8360431,16.8507255 84.2197845,15.9700822 L84.9514202,14.3226719 L81,5 L82.118903,5 L85.5085211,13.0787925 L88.8652302,5 L90,5 L85.1806072,16.2790081 C84.6805093,17.4411302 83.8936337,18 82.8129285,18 C82.4885406,18 82.0607248,17.9427699 81.810382,17.8662684 L81.9825661,16.9464984" id="Fill-9"></path>
                        <path d="M79.8333333,14.8114923 C79.7657177,14.4787247 79.7147094,14.1853558 79.6773428,13.9404776 C79.6465006,13.6962056 79.628707,13.4464784 79.628707,13.1925082 C79.2817319,13.7131774 78.7900356,14.1465632 78.1619217,14.4878167 C77.5332147,14.8314947 76.9359431,15 76.1168446,15 C75.1304864,15 74.3647687,14.7520912 73.8185053,14.2489999 C73.2740214,13.7465147 73,13.0658262 73,12.2045096 C73,11.3444054 73.3967972,10.6461389 74.188019,10.1121348 C74.9792408,9.57570615 76.0017794,9.30900715 77.267497,9.30900715 L79.628707,9.30900715 L79.628707,8.11674142 C79.628707,7.42999151 79.3997628,6.88992605 78.9424674,6.49836344 C78.4833926,6.10619469 77.8392645,5.90798885 77.0041518,5.90798885 C76.2408066,5.90798885 75.6215896,6.08922294 75.1500593,6.44199297 C74.6826809,6.80203661 74.4472123,7.24815129 74.4472123,7.78579222 L73.411032,7.78579222 L73.3896797,7.73427082 C73.3523132,7.00933446 73.6767497,6.37349982 74.366548,5.82434234 C75.0533808,5.275791 75.9531435,5 77.0604982,5 C78.1642942,5 79.0575326,5.27154807 79.7307236,5.81343193 C80.4033215,6.34986059 80.7408066,7.12510607 80.7408066,8.13856225 L80.7408066,12.8724694 C80.7408066,13.2125106 80.7568209,13.5410353 80.7983393,13.8610741 C80.8410439,14.181719 80.9092527,14.5017578 81,14.8114923 L79.8333333,14.8114923 L79.8333333,14.8114923 Z M76.2386495,14.122807 C77.0979386,14.122807 77.7154415,13.9254081 78.3465745,13.5348752 C78.9735593,13.1467792 79.4002407,12.6404876 79.6236559,12.0275763 L79.6236559,10.1754386 L77.2532032,10.1754386 C76.3476903,10.1754386 75.5980347,10.3813671 75.0083846,10.7968795 C74.4175492,11.2111735 74.1182796,11.712591 74.1182796,12.2956488 C74.1182796,12.8458068 74.3079158,13.2856895 74.6848178,13.6189525 C75.062905,13.9558709 75.5796636,14.122807 76.2386495,14.122807 L76.2386495,14.122807 Z" id="Fill-10"></path>
                    </g>
                    <g id="Get-it-on" transform="translate(33.000000, 6.000000)" fill="#FFFFFF">
                        <path d="M0.00272250272,2.52159772 C0.00272250272,1.02575979 1.10528665,0.0635456885 2.47631657,0.0635456885 C3.39519362,0.0635456885 3.99615069,0.505487689 4.37058978,1.04667749 L3.69942538,1.43877306 C3.44508939,1.08228208 2.99955987,0.80501132 2.47631657,0.80501132 C1.54375129,0.80501132 0.850950671,1.51710316 0.850950671,2.52159772 C0.850950671,3.51140538 1.54375129,4.23818412 2.47631657,4.23818412 C2.95717054,4.23818412 3.38106384,4.01743565 3.59301049,3.81092901 L3.59301049,3.07702936 L2.17959125,3.07702936 L2.17959125,2.3431297 L4.41297911,2.3431297 L4.41297911,4.11712851 C3.95376136,4.63740061 3.28922029,4.98632561 2.47631657,4.98632561 C1.10528665,4.98632561 0.00272250272,4.01075979 0.00272250272,2.52159772" id="Fill-1"></path>
                        <polyline id="Fill-2" points="5.48237798 4.91393179 5.48237798 0.135939511 8.75680626 0.135939511 8.75680626 0.874319885 6.32079277 0.874319885 6.32079277 2.10584885 8.70667147 2.10584885 8.70667147 2.84378172 6.32079277 2.84378172 6.32079277 4.17599892 8.75680626 4.17599892 8.75680626 4.91393179 5.48237798 4.91393179"></polyline>
                        <polyline id="Fill-3" points="10.983638 4.91393179 10.983638 0.874319885 9.55870706 0.874319885 9.55870706 0.135939511 13.2340857 0.135939511 13.2340857 0.874319885 11.8091548 0.874319885 11.8091548 4.91393179 10.983638 4.91393179"></polyline>
                        <polygon id="Fill-4" points="16.1743887 0.135939511 16.9762895 0.135939511 16.9762895 4.91393179 16.1743887 4.91393179"></polygon>
                        <polyline id="Fill-5" points="19.270387 4.91393179 19.270387 0.874319885 17.8450153 0.874319885 17.8450153 0.135939511 21.520394 0.135939511 21.520394 0.874319885 20.0959038 0.874319885 20.0959038 4.91393179 19.270387 4.91393179"></polyline>
                        <path d="M24.2602218,2.5251585 C24.2602218,1.10515154 25.2687557,0.0635456885 26.6995601,0.0635456885 C28.1223213,0.0635456885 29.1384516,1.10515154 29.1384516,2.5251585 C29.1384516,3.94471976 28.1223213,4.98632561 26.6995601,4.98632561 C25.2687557,4.98632561 24.2602218,3.94471976 24.2602218,2.5251585 L24.2602218,2.5251585 Z M28.2697258,2.48873874 C28.2697258,1.51438771 27.6517804,0.787483912 26.6995587,0.787483912 C25.7402341,0.787483912 25.1289476,1.51438771 25.1289476,2.48873874 C25.1289476,3.45559136 25.7402341,4.18999356 26.6995587,4.18999356 C27.6517804,4.18999356 28.2697258,3.45559136 28.2697258,2.48873874 L28.2697258,2.48873874 Z" id="Fill-6"></path>
                        <polyline id="Fill-7" points="33.3533062 4.91393179 30.8987851 1.49724442 30.8987851 4.91393179 30.0740026 4.91393179 30.0740026 0.135939511 30.920374 0.135939511 33.3251085 3.4456736 33.3251085 0.135939511 34.1503317 0.135939511 34.1503317 4.91393179 33.3533062 4.91393179"></polyline>
                    </g>
                    <g id="icon" transform="translate(6.000000, 10.000000)">
                        <path d="M11.271731,6.27648579 C11.271731,6.27648579 2.56186828,1.39448751 2.0503245,1.10766581 C1.53792957,0.8208441 1.02808809,0.994832041 1.02808809,1.59431525 L1.02808809,12.0163652 L1.02808809,22.6503015 C1.02808809,23.0990525 1.39238217,23.2937123 1.83753591,23.044789 C2.28183849,22.7958656 11.271731,17.7562446 11.271731,17.7562446 C11.271731,17.7562446 12.4929923,17.0720784 13.1036229,16.7299952 C14.0863533,16.1794571 16.051814,15.0783807 16.051814,15.0783807 C16.051814,15.0783807 20.1075646,12.8044789 20.6471965,12.5030146 C21.1859772,12.2006891 21.1340568,11.786391 20.6795404,11.5478036 C20.2241728,11.3100775 16.051814,8.95521102 16.051814,8.95521102 L11.271731,6.27648579 Z" id="orange" fill="url(#linearGradient-1)"></path>
                        <g id="blue" transform="translate(1.000000, 1.000000)">
                            <mask id="mask-4" fill="white">
                                <use xlink:href="#path-3"></use>
                            </mask>
                            <use id="Clip-2" fill="url(#linearGradient-2)" xlink:href="#path-3"></use>
                            <path d="M15.042735,7.95503675 L10.2564103,5.27453524 C10.239648,5.31354017 1.53318202,0.422575202 1.02564103,0.172935581 C0.509642637,-0.15212181 0,0.0221856918 0,0.605274535 L0,11.0678772 C0,11.0639619 0,21.2669912 0,21.7034155 C0,22.1670047 0.364152001,22.362022 0.769230769,22.1357544 C1.25326144,21.8632609 10.239648,16.8143837 10.2564103,16.7747514 L15.042735,14.0942499 C15.0178668,14.1316014 19.0720356,11.8535231 19.5726496,11.586684 C20.1500277,11.2486243 20.0981275,10.8335654 19.6581197,10.6355383 C19.1885983,10.356377 15.0178668,7.99718537 15.042735,7.95503675" id="Fill-1" mask="url(#mask-4)"></path>
                        </g>
                        <g id="red" transform="translate(1.254992, 11.024978)">
                            <mask id="mask-6" fill="white">
                                <use xlink:href="#path-5"></use>
                            </mask>
                            <g id="Clip-8"></g>
                            <path d="M10.0014186,-4.75044323 C9.98465631,-4.7114383 1.27819036,-9.60240326 0.77064936,-9.85204289 C0.254650971,-10.1771003 -0.254991666,-10.0027928 -0.254991666,-9.41970393 L-0.254991666,1.04289875 C-0.254991666,1.03898346 -0.254991666,11.2420127 -0.254991666,11.678437 C-0.254991666,12.1420262 0.109160335,12.3370435 0.514239103,12.110776 C0.998269777,11.8382824 9.98465631,6.78940521 10.0014186,6.74977294 L14.7877434,4.06927143 C14.7628751,4.10662292 18.817044,1.82854467 19.3176579,1.56170549 C19.895036,1.22364586 19.8431358,0.808586907 19.403128,0.610559795 C18.9336067,0.331398547 14.7628751,-2.02779309 14.7877434,-2.06994172 L10.0014186,-4.75044323 Z" id="Fill-7" fill="url(#linearGradient-7)" mask="url(#mask-6)"></path>
                        </g>
                        <g id="green" transform="translate(0.425577, 0.000000)">
                            <mask id="mask-10" fill="white">
                                <use xlink:href="#path-9"></use>
                            </mask>
                            <use id="Clip-5" fill="url(#linearGradient-8)" xlink:href="#path-9"></use>
                            <path d="M15.6171579,8.95503675 L10.8308331,6.27453524 C10.8140708,6.31354017 2.10760483,1.4225752 1.60006384,1.17293558 C1.08406545,0.84787819 0.574422811,1.02218569 0.574422811,1.60527454 L0.574422811,12.0678772 C0.574422811,12.0639619 0.574422811,22.2669912 0.574422811,22.7034155 C0.574422811,23.1670047 0.938574812,23.362022 1.34365358,23.1357544 C1.82768425,22.8632609 10.8140708,17.8143837 10.8308331,17.7747514 L15.6171579,15.0942499 C15.5922896,15.1316014 19.6464585,12.8535231 20.1470724,12.586684 C20.7244505,12.2486243 20.6725503,11.8335654 20.2325425,11.6355383 C19.7630211,11.356377 15.5922896,8.99718537 15.6171579,8.95503675" id="Fill-4" mask="url(#mask-10)"></path>
                        </g>
                    </g>
                </g>
            </g>
        </g>
    </g>
</svg>